<?xml version="1.0" encoding="utf-8"?>
<!-- Generator: Adobe Illustrator 26.0.0, SVG Export Plug-In . SVG Version: 6.00 Build 0)  -->
<svg version="1.1" xmlns="http://www.w3.org/2000/svg" xmlns:xlink="http://www.w3.org/1999/xlink" x="0px" y="0px"
	 viewBox="0 0 82.4 49.1" style="enable-background:new 0 0 82.4 49.1;" xml:space="preserve">
<style type="text/css">
	.st0{fill:none;}
	.st1{fill:#FFFFFF;}
</style>
<g id="BACKGROUND_2">
	<g>
		<path class="st0" d="M27.2,13.7c-6,0-10.8,4.9-10.8,10.8c0,6,4.9,10.8,10.8,10.8c6,0,10.8-4.9,10.8-10.8
			C38.1,18.6,33.2,13.7,27.2,13.7z"/>
		<path class="st1" d="M27.2,12.1c-6.9,0-12.4,5.6-12.4,12.4c0,6.9,5.6,12.4,12.4,12.4c6.9,0,12.4-5.6,12.4-12.4
			C39.7,17.7,34.1,12.1,27.2,12.1z M27.2,35.4c-6,0-10.8-4.9-10.8-10.8c0-6,4.9-10.8,10.8-10.8c6,0,10.8,4.9,10.8,10.8
			C38.1,30.5,33.2,35.4,27.2,35.4z"/>
		<path class="st1" d="M27.2,18.3c-0.8,0-1.5,0.1-2.2,0.4c0.4,0.6,0.7,1.2,0.7,2c0,1.8-1.4,3.2-3.2,3.2c-0.5,0-1-0.1-1.5-0.4
			C21,23.8,21,24.2,21,24.5c0,3.5,2.8,6.3,6.3,6.3c3.5,0,6.3-2.8,6.3-6.3C33.5,21.1,30.7,18.3,27.2,18.3z"/>
		<path class="st1" d="M54.4,24.2c-0.1-0.2-0.2-0.3-0.2-0.4c-1.4-2.7-3.3-5.2-5.5-7.2c-0.4-0.4-0.9-0.8-1.3-1.2
			c-5.4-4.4-12.5-7-20-7c-7.5,0-14.6,2.6-20,6.9c-0.5,0.4-0.9,0.8-1.4,1.2c-2.3,2.1-4.2,4.6-5.6,7.3c-0.1,0.2-0.2,0.3-0.2,0.4
			c-0.1,0.2-0.1,0.5,0,0.7c0.1,0.2,0.2,0.3,0.2,0.4c1.4,2.7,3.3,5.2,5.5,7.2c0.4,0.4,0.9,0.8,1.3,1.2c5.4,4.4,12.5,7,20,7
			c7.5,0,14.6-2.6,20-6.9c0.5-0.4,0.9-0.8,1.4-1.2c2.3-2.1,4.2-4.6,5.6-7.3c0.1-0.2,0.2-0.3,0.2-0.4C54.5,24.7,54.5,24.4,54.4,24.2z
			 M52.3,25.3c-1.4,2.5-3.2,4.7-5.4,6.7c-0.3,0.2-0.6,0.5-0.9,0.7c-5.1,4.1-11.7,6.4-18.8,6.4c-7.1,0-13.8-2.4-18.8-6.5
			c-0.3-0.2-0.6-0.5-0.9-0.8c-2.2-1.9-4-4.1-5.4-6.6c-0.2-0.3-0.3-0.5-0.5-0.8C1.8,24.3,2,24,2.1,23.7c1.4-2.5,3.2-4.7,5.4-6.7
			c0.3-0.2,0.6-0.5,0.9-0.7c5.1-4.1,11.7-6.4,18.8-6.4c7.1,0,13.8,2.4,18.8,6.5c0.3,0.2,0.6,0.5,0.9,0.8c2.2,1.9,4,4.1,5.4,6.6
			c0.1,0.3,0.3,0.5,0.5,0.8C52.6,24.8,52.5,25.1,52.3,25.3z"/>
	</g>
</g>
<g id="BACKGROUND_1">
</g>
<g id="DESIGNED_BY_FREEPIK">
</g>
</svg>
